<svg viewBox="0 0 24 24" xmlns="http://www.w3.org/2000/svg">
<path d="M13 19H18V21H6V19H11V17H3C2.4 17 2 16.6 2 16V4C2 3.4 2.4 3 3 3H21C21.6 3 22 3.4 22 4V16C22 16.6 21.6 17 21 17H13V19Z" fill="currentColor"/>
<path d="M13.2 13.7C13.2 14.4 12.7 15 12.0 15C11.3 15 10.8 14.4 10.8 13.7C10.8 13.1 11.3 12.5 12.0 12.5C12.7 12.5 13.2 13.1 13.2 13.7Z" fill="white"/>
<path d="M8.9 11.7C10.5 9.7 13.5 9.7 15.1 11.7C15.3 12.1 15.8 12.2 16.2 11.9C16.6 11.6 16.6 11.1 16.4 10.8C14.2 7.8 9.8 7.8 7.6 10.8C7.4 11.1 7.4 11.6 7.8 11.9C8.2 12.2 8.7 12.1 8.9 11.7Z" fill="white"/>
<path d="M17.6 9.3C14.7 5.8 9.3 5.8 6.4 9.3C6.1 9.6 5.6 9.7 5.3 9.4C5.0 9.1 4.9 8.6 5.2 8.2C8.7 3.9 15.3 3.9 18.8 8.2C19.1 8.6 19.1 9.1 18.7 9.4C18.4 9.7 17.9 9.6 17.6 9.3Z" fill="white"/>
</svg>
