<svg xmlns="http://www.w3.org/2000/svg" style="display:none">
  <!-- icon-add -->
  <symbol id="icon-add" viewBox="0 0 24 24">
    <path d="M12.3037 3.90344C12.8006 3.90366 13.2031 4.30691 13.2031 4.80383V11.4034H19.8037C20.3006 11.4037 20.7031 11.8069 20.7031 12.3038C20.7029 12.8005 20.3004 13.203 19.8037 13.2032H13.2031V19.8038C13.2029 20.3006 12.8005 20.703 12.3037 20.7032C11.8068 20.7032 11.4035 20.3007 11.4033 19.8038V13.2032H4.80371C4.30681 13.2032 3.90358 12.8007 3.90332 12.3038C3.90332 11.8068 4.30665 11.4034 4.80371 11.4034H11.4033V4.80383C11.4033 4.30678 11.8067 3.90344 12.3037 3.90344Z" fill="currentColor"/>
  </symbol>
  <!-- icon-arrow-down -->
  <symbol id="icon-arrow-down" viewBox="0 0 24 24">
    <path fill-rule="evenodd" clip-rule="evenodd" d="M17.8493 9.2339C18.0791 9.50968 18.0419 9.91954 17.7661 10.1494L11.7661 15.1494C11.5251 15.3502 11.1749 15.3502 10.9339 15.1494L4.93386 10.1494C4.65808 9.91954 4.62082 9.50968 4.85064 9.2339C5.08046 8.95812 5.49032 8.92086 5.7661 9.15067L11.35 13.8039L16.9339 9.15067C17.2096 8.92086 17.6195 8.95812 17.8493 9.2339Z" fill="currentColor"/>
  </symbol>
  <!-- icon-calendar -->
  <symbol id="icon-calendar" viewBox="0 0 24 24">
    <path d="M7 13C7 12.4477 7.05151 12 7.11505 12H8.88496C8.94849 12 9 12.4477 9 13C9 13.5523 8.94849 14 8.88496 14H7.11505C7.05151 14 7 13.5523 7 13Z" fill="currentColor"/>
<path d="M7.11505 16C7.05151 16 7 16.4477 7 17C7 17.5523 7.05151 18 7.11505 18H8.88496C8.94849 18 9 17.5523 9 17C9 16.4477 8.94849 16 8.88496 16H7.11505Z" fill="currentColor"/>
<path d="M10.6499 13C10.6499 12.4477 10.7014 12 10.7649 12H12.5349C12.5984 12 12.6499 12.4477 12.6499 13C12.6499 13.5523 12.5984 14 12.5349 14H10.7649C10.7014 14 10.6499 13.5523 10.6499 13Z" fill="currentColor"/>
<path d="M10.7649 16C10.7014 16 10.6499 16.4477 10.6499 17C10.6499 17.5523 10.7014 18 10.7649 18H12.5349C12.5984 18 12.6499 17.5523 12.6499 17C12.6499 16.4477 12.5984 16 12.5349 16H10.7649Z" fill="currentColor"/>
<path d="M14.6499 13C14.6499 12.4477 14.7014 12 14.7649 12H16.5349C16.5984 12 16.6499 12.4477 16.6499 13C16.6499 13.5523 16.5984 14 16.5349 14H14.7649C14.7014 14 14.6499 13.5523 14.6499 13Z" fill="currentColor"/>
<path d="M14.7649 16C14.7014 16 14.6499 16.4477 14.6499 17C14.6499 17.5523 14.7014 18 14.7649 18H16.5349C16.5984 18 16.6499 17.5523 16.6499 17C16.6499 16.4477 16.5984 16 16.5349 16H14.7649Z" fill="currentColor"/>
<path fill-rule="evenodd" clip-rule="evenodd" d="M8.5 2C9.32843 2 10 2.67157 10 3.5V4L14 4V3.5C14 2.67157 14.6716 2 15.5 2C16.3284 2 17 2.67157 17 3.5V4L19 4C20.1046 4 21 4.89543 21 6V20C21 21.1046 20.1046 22 19 22H5C3.89543 22 3 21.1046 3 20V6C3 4.89543 3.89543 4 5 4L7 4V3.5C7 2.67157 7.67157 2 8.5 2ZM19.7 9L19.7 20C19.7 20.3866 19.3866 20.7 19 20.7H5C4.6134 20.7 4.3 20.3866 4.3 20L4.3 9L19.7 9Z" fill="currentColor"/>
  </symbol>
  <!-- icon-chevron-right -->
  <symbol id="icon-chevron-right" viewBox="0 0 24 24">
    <polyline points="9 18 15 12 9 6"/>
  </symbol>
  <!-- icon-close -->
  <symbol id="icon-close" viewBox="0 0 24 24">
    <path d="M16.9701 6.36362C17.3215 6.01221 17.891 6.01232 18.2425 6.36362C18.594 6.71509 18.594 7.28461 18.2425 7.63608L13.5765 12.3031L18.2425 16.9701C18.594 17.3215 18.594 17.892 18.2425 18.2435C17.8911 18.5944 17.3214 18.5946 16.9701 18.2435L12.3031 13.5765L7.63608 18.2425C7.28461 18.594 6.71509 18.594 6.36362 18.2425C6.01233 17.891 6.01221 17.3215 6.36362 16.9701L11.0306 12.3031L6.36362 7.63608C6.01231 7.28459 6.0122 6.71504 6.36362 6.36362C6.71504 6.01221 7.2846 6.01231 7.63608 6.36362L12.3031 11.0306L16.9701 6.36362Z" fill="currentColor"/>
  </symbol>
  <!-- icon-collapse -->
  <symbol id="icon-collapse" viewBox="0 0 24 24">
    <path fill-rule="evenodd" clip-rule="evenodd" d="M18 11.65C18 12.009 17.709 12.3 17.35 12.3L5.35 12.3C4.99102 12.3 4.7 12.009 4.7 11.65C4.7 11.291 4.99102 11 5.35 11L17.35 11C17.709 11 18 11.291 18 11.65Z" fill="currentColor"/>
  </symbol>
  <!-- icon-current-location -->
  <symbol id="icon-current-location" viewBox="0 0 24 24">
    <path fill-rule="evenodd" clip-rule="evenodd" d="M12 3C16.9706 3 21 7.02944 21 12C21 16.9706 16.9706 21 12 21C7.02944 21 3 16.9706 3 12C3 7.02944 7.02944 3 12 3ZM13 9H11V5.07227C7.93446 5.51084 5.51084 7.93446 5.07227 11H9V13H5.07227C5.51084 16.0655 7.93453 18.4881 11 18.9268V15H13V18.9268C16.0655 18.4881 18.4892 16.0655 18.9277 13H15V11H18.9277C18.4892 7.93446 16.0655 5.51084 13 5.07227V9Z" fill="currentColor"/>
  </symbol>
  <!-- icon-delete -->
  <symbol id="icon-delete" viewBox="0 0 24 24">
    <path d="M15.5 4H19.2C19.6418 4 20 4.35817 20 4.8V6.2C20 6.64183 19.6418 7 19.2 7H18.7083L16.8538 19.7165C16.7464 20.4535 16.1144 21 15.3695 21H8.63044C7.88562 21 7.25362 20.4535 7.14614 19.7165L5.29166 7H4.8C4.35817 7 4 6.64183 4 6.2V4.8C4 4.35817 4.35817 4 4.8 4H8.5C8.5 3.17157 9.17157 2.5 10 2.5H14C14.8284 2.5 15.5 3.17157 15.5 4Z" fill="currentColor"/>
  </symbol>
  <!-- icon-disconnect -->
  <symbol id="icon-disconnect" viewBox="0 0 24 24">
    <path d="M9.37706 9.3647L6.75423 9.3647C5.10287 9.3647 3.7646 10.703 3.7646 12.3543C3.7646 14.0057 5.10287 15.3439 6.75422 15.3439L9.37706 15.344C9.75369 15.344 10.0594 15.6497 10.0594 16.0263C10.0594 16.4029 9.75369 16.7086 9.37706 16.7086H6.75422C4.34962 16.7086 2.3999 14.7589 2.3999 12.3543C2.3999 9.94972 4.34963 8 6.75423 8L9.37706 8C9.75369 8 10.0594 8.30573 10.0594 8.68235C10.0594 9.05897 9.75369 9.3647 9.37706 9.3647Z" fill="currentColor"/>
<path d="M14.6227 15.3439H17.2456C18.8969 15.3439 20.2352 14.0057 20.2352 12.3543C20.2352 10.703 18.8969 9.3647 17.2456 9.3647L14.6227 9.3647C14.2461 9.3647 13.9404 9.05897 13.9404 8.68235C13.9404 8.30572 14.2461 8 14.6227 8L17.2456 8C19.6502 8 21.5999 9.94972 21.5999 12.3543C21.5999 14.7589 19.6502 16.7086 17.2456 16.7086H14.6227C14.2461 16.7086 13.9404 16.4029 13.9404 16.0263C13.9404 15.6497 14.2461 15.3439 14.6227 15.3439Z" fill="currentColor"/>
<path d="M8.32793 13.1934V11.8298L15.6719 11.8298V13.1934L8.32793 13.1934Z" fill="currentColor"/>
  </symbol>
  <!-- icon-dot -->
  <symbol id="icon-dot" viewBox="0 0 24 24">
    <circle cx="12" cy="12" r="2" fill="currentColor"/>
  </symbol>
  <!-- icon-download -->
  <symbol id="icon-download" viewBox="0 0 24 24">
    <path fill-rule="evenodd" clip-rule="evenodd" d="M4 4C4 2.89543 4.89543 2 6 2H15.1716C15.702 2 16.2107 2.21071 16.5858 2.58579L19.4142 5.41421C19.7893 5.78929 20 6.29799 20 6.82843V20C20 21.1046 19.1046 22 18 22H6C4.89543 22 4 21.1046 4 20V4ZM18 20.7H6C5.6134 20.7 5.3 20.3866 5.3 20V4C5.3 3.6134 5.6134 3.3 6 3.3H15V7H18.7V20C18.7 20.3866 18.3866 20.7 18 20.7Z" fill="currentColor"/>
<path d="M12.9061 13.5852L14.7185 11.8012L16 13.0626L12 17L8 13.0626L9.28151 11.8012L11.0938 13.5851L11.0938 9L12.9061 9L12.9061 13.5852Z" fill="currentColor"/>
  </symbol>
  <!-- icon-edit -->
  <symbol id="icon-edit" viewBox="0 0 24 24">
    <path d="M19.6494 19C20.0084 19 20.2998 19.2915 20.2998 19.6504C20.2998 20.0094 20.0084 20.3008 19.6494 20.3008H4.64941C4.29061 20.3006 4 20.0092 4 19.6504C4.00005 19.2916 4.29064 19.0002 4.64941 19H19.6494ZM19.2998 6.93262L9.13867 16.9863L6.2998 17.959C5.7067 18.1621 5.14243 17.5823 5.33984 16.9727L6.28516 14.0576L6.28418 14.0557L16.4473 4L19.2998 6.93262Z" fill="currentColor"/>
  </symbol>
  <!-- icon-handle -->
  <symbol id="icon-handle" viewBox="0 0 24 24">
    <circle cx="12" cy="6" r="2" fill="currentColor"/>
<circle cx="12" cy="12" r="2" fill="currentColor"/>
<circle cx="12" cy="18" r="2" fill="currentColor"/>
  </symbol>
  <!-- icon-help -->
  <symbol id="icon-help" viewBox="0 0 24 24">
    <circle cx="11.238" cy="19.2131" r="1.32" fill="currentColor"/>
<path d="M10.7352 4.07228C11.3984 3.95288 12.0809 3.98155 12.7313 4.15724L12.9589 4.21974C14.8358 4.72668 16.1384 6.43068 16.1386 8.37403C16.1386 10.0258 15.3328 11.5752 13.9784 12.5215L13.285 13.0049C12.6195 13.4698 12.2226 14.2311 12.2225 15.043V16H10.3085V15.043C10.3085 13.6056 11.011 12.2587 12.1893 11.4356L12.8808 10.9522C13.7224 10.3644 14.2245 9.40112 14.2245 8.37403C14.2244 7.29505 13.5007 6.34957 12.4599 6.06837L12.2323 6.00685C11.8553 5.90501 11.4595 5.88786 11.0751 5.95704L10.7528 6.01466C9.30564 6.27524 8.50128 7.8405 9.13173 9.16896L9.26454 9.44825L7.32606 9.81642C6.3021 7.3873 7.78774 4.60374 10.414 4.13087L10.7352 4.07228Z" fill="currentColor"/>
  </symbol>
  <!-- icon-hide -->
  <symbol id="icon-hide" viewBox="0 0 24 24">
    <path fill-rule="evenodd" clip-rule="evenodd" d="M5.0079 3.3295C4.57398 2.89017 3.87046 2.89017 3.43655 3.3295C3.00263 3.76884 3.00263 4.48116 3.43655 4.9205L5.23009 6.73645C3.81436 8.01874 2.67084 9.77326 2 12C4.2214 19.3736 11.6259 21.5691 16.9339 18.5865L18.9921 20.6705C19.426 21.1098 20.1295 21.1098 20.5635 20.6705C20.9974 20.2312 20.9974 19.5188 20.5635 19.0795L5.0079 3.3295ZM14.2577 15.877L12.5756 14.1738C12.392 14.2235 12.1991 14.25 12 14.25C10.7727 14.25 9.77778 13.2426 9.77778 12C9.77778 11.7984 9.80395 11.6031 9.85305 11.4172L8.17091 9.71404C7.77992 10.384 7.55556 11.1655 7.55556 12C7.55556 14.4853 9.5454 16.5 12 16.5C12.8242 16.5 13.5961 16.2728 14.2577 15.877Z" fill="currentColor"/>
<path d="M16.4444 12C16.4444 12.2093 16.4303 12.4153 16.403 12.6171L19.8582 16.1154C20.7714 14.9944 21.5112 13.6225 22 12C19.9855 5.31331 13.7087 2.88489 8.59825 4.71474L11.3906 7.54196C11.5898 7.51429 11.7933 7.5 12 7.5C14.4546 7.5 16.4444 9.51472 16.4444 12Z" fill="currentColor"/>
  </symbol>
  <!-- icon-home -->
  <symbol id="icon-home" viewBox="0 0 24 24">
    <path d="M6.23327 10.7231L11.5666 6.1601C11.8161 5.94663 12.1839 5.94663 12.4334 6.1601L17.7667 10.7231C17.9148 10.8497 18 11.0348 18 11.2296V17.256C18 17.6242 17.7015 17.9226 17.3333 17.9226H14.1667C13.7985 17.9226 13.5 17.6242 13.5 17.256V14.2561C13.5 14.072 13.3508 13.9228 13.1667 13.9228H10.8333C10.6492 13.9228 10.5 14.072 10.5 14.2561V17.256C10.5 17.6242 10.2015 17.9226 9.83333 17.9226H6.66667C6.29848 17.9226 6 17.6242 6 17.256V11.2296C6 11.0348 6.08523 10.8497 6.23327 10.7231Z" fill="currentColor"/>
  </symbol>
  <!-- icon-manager -->
  <symbol id="icon-manager" viewBox="0 0 24 24">
    <path d="M11.1056 3.78801C11.4742 3.05115 12.5258 3.05115 12.8944 3.78801L14.7303 7.45845C14.8758 7.74943 15.1538 7.95141 15.4756 7.99992L19.5337 8.61177C20.3484 8.73461 20.6733 9.7347 20.0864 10.3129L17.163 13.1932C16.9312 13.4216 16.825 13.7484 16.8783 14.0694L17.5504 18.1179C17.6854 18.9307 16.8346 19.5488 16.1033 19.1693L12.4606 17.279C12.1718 17.1292 11.8282 17.1292 11.5394 17.279L7.89667 19.1693C7.16537 19.5488 6.31463 18.9307 6.44957 18.1179L7.12169 14.0694C7.17497 13.7484 7.06878 13.4216 6.83702 13.1932L3.91357 10.3129C3.32667 9.7347 3.65162 8.73461 4.46631 8.61177L8.52444 7.99992C8.84615 7.95141 9.12416 7.74943 9.26971 7.45845L11.1056 3.78801Z" fill="currentColor"/>
  </symbol>
  <!-- icon-multi-sort -->
  <symbol id="icon-multi-sort" viewBox="0 0 24 24">
    <path d="M7.01993 18C7.56083 18 7.99992 18.4481 8 19C8 19.552 7.56088 20 7.01993 20H4.9786C4.43792 19.9997 4 19.5518 4 19C4.00008 18.4483 4.43796 18.0003 4.9786 18H7.01993Z" fill="currentColor"/>
<path d="M11.0199 13C11.5608 13 11.9999 13.4481 12 14C12 14.552 11.5609 15 11.0199 15H4.9786C4.43792 14.9997 4 14.5518 4 14C4.00008 13.4483 4.43796 13.0003 4.9786 13H11.0199Z" fill="currentColor"/>
<path d="M15.1179 8C15.6048 8 15.9999 8.44812 16 9C16 9.55195 15.6048 10 15.1179 10H4.88074C4.39412 9.99968 4 9.55175 4 9C4.00007 8.44832 4.39417 8.00032 4.88074 8H15.1179Z" fill="currentColor"/>
<path d="M18.9661 3C19.5367 3 19.9999 3.44812 20 4C20 4.55195 19.5368 5 18.9661 5H5.03236C4.46198 4.99968 4 4.55175 4 4C4.00008 3.44832 4.46203 3.00032 5.03236 3L18.9661 3Z" fill="currentColor"/>
<path d="M16.0939 15.5215L14.2815 17.3613L13 16.0604L17 12L21 16.0604L19.7185 17.3612L17.9062 15.5216L17.9062 21H16.0939L16.0939 15.5215Z" fill="currentColor"/>
  </symbol>
  <!-- icon-new -->
  <symbol id="icon-new" viewBox="0 0 24 24">
    <path d="M12 3C16.9706 3 21 7.02944 21 12C21 16.9706 16.9706 21 12 21C7.02944 21 3 16.9706 3 12C3 7.02944 7.02944 3 12 3Z" fill="currentColor"/>
    <path d="M16.2135 7.08789V16.9999H14.2255L10.1935 11.1759H10.1375V16.9999H7.81348V7.08789H9.82948L13.8055 12.9119H13.8615V7.08789H16.2135Z" fill="currentColor"/>
  </symbol>
  <!-- icon-print -->
  <symbol id="icon-print" viewBox="0 0 24 24">
    <path d="M19 4.5V9H20L20.2041 9.01074C20.2705 9.01748 20.3361 9.02697 20.4004 9.04004L20.4033 9.04102L20.5713 9.08301C20.5742 9.08389 20.5771 9.08504 20.5801 9.08594C20.6128 9.09584 20.6448 9.10763 20.6768 9.11914C20.7037 9.12882 20.7305 9.13862 20.7568 9.14941C20.7863 9.16148 20.815 9.17506 20.8438 9.18848C20.8726 9.20192 20.9016 9.21473 20.9297 9.22949C20.9563 9.24351 20.9819 9.25925 21.0078 9.27441C21.0365 9.29119 21.065 9.30803 21.0928 9.32617C21.1165 9.34167 21.1391 9.35853 21.1621 9.375C21.1898 9.39482 21.2175 9.41438 21.2441 9.43555C21.2651 9.45226 21.2854 9.46978 21.3057 9.4873C21.334 9.51173 21.3618 9.53655 21.3887 9.5625C21.4062 9.57947 21.4235 9.59666 21.4404 9.61426C21.466 9.64084 21.4905 9.66833 21.5146 9.69629C21.5315 9.71591 21.5483 9.73559 21.5645 9.75586C21.5872 9.78443 21.6087 9.81394 21.6299 9.84375C21.646 9.8665 21.6615 9.88965 21.6768 9.91309C21.694 9.93968 21.7105 9.9667 21.7266 9.99414C21.7415 10.0197 21.7567 10.045 21.7705 10.0713C21.7884 10.1054 21.8043 10.1405 21.8203 10.1758C21.8301 10.1973 21.8406 10.2184 21.8496 10.2402C21.8646 10.2766 21.8768 10.3141 21.8896 10.3516C21.8975 10.3743 21.9061 10.3968 21.9131 10.4199C21.9253 10.4604 21.9356 10.5015 21.9453 10.543C21.9503 10.5644 21.9556 10.5857 21.96 10.6074C21.9853 10.7344 22 10.8655 22 11V16L21.9893 16.2041C21.9829 16.2669 21.973 16.3287 21.9609 16.3896C21.9559 16.4154 21.9484 16.4405 21.9424 16.4658C21.9343 16.4996 21.9268 16.5333 21.917 16.5664C21.9091 16.5931 21.9005 16.6193 21.8916 16.6455C21.88 16.6796 21.8669 16.7129 21.8535 16.7461C21.8441 16.7694 21.8345 16.7925 21.8242 16.8154C21.8091 16.8492 21.7932 16.8823 21.7764 16.915C21.7649 16.9373 21.7535 16.9596 21.7412 16.9814C21.7231 17.0135 21.7034 17.0443 21.6836 17.0752C21.6702 17.0961 21.6577 17.1174 21.6436 17.1377C21.6274 17.1611 21.6099 17.1834 21.5928 17.2061C21.4838 17.3497 21.356 17.4773 21.2129 17.5869C21.188 17.606 21.1635 17.6256 21.1377 17.6436C21.1174 17.6577 21.0961 17.6702 21.0752 17.6836C21.0443 17.7034 21.0135 17.7231 20.9814 17.7412C20.9596 17.7535 20.9373 17.7649 20.915 17.7764C20.8823 17.7932 20.8492 17.8091 20.8154 17.8242C20.7925 17.8345 20.7694 17.8441 20.7461 17.8535C20.7142 17.8664 20.6821 17.8784 20.6494 17.8896C20.6219 17.8991 20.5944 17.9087 20.5664 17.917C20.5333 17.9268 20.4996 17.9343 20.4658 17.9424C20.4405 17.9484 20.4154 17.9559 20.3896 17.9609C20.3287 17.973 20.2669 17.9829 20.2041 17.9893L20 18H19V22H5V18H4L3.7959 17.9893C3.73646 17.9832 3.6779 17.974 3.62012 17.9629C3.58577 17.9563 3.55225 17.9468 3.51855 17.9385C3.49341 17.9323 3.46812 17.9271 3.44336 17.9199C3.41896 17.9129 3.3951 17.9044 3.37109 17.8965C3.33628 17.8849 3.30152 17.8737 3.26758 17.8604C3.24977 17.8533 3.2324 17.8454 3.21484 17.8379C3.17884 17.8225 3.14328 17.8065 3.1084 17.7891C3.08725 17.7785 3.06661 17.7671 3.0459 17.7559C3.01523 17.7392 2.98475 17.7223 2.95508 17.7041C2.93119 17.6894 2.90798 17.6738 2.88477 17.6582C2.86166 17.6426 2.83881 17.6268 2.81641 17.6104C2.78704 17.5887 2.75858 17.5661 2.73047 17.543C2.71655 17.5315 2.70305 17.5196 2.68945 17.5078C2.66281 17.4847 2.6367 17.461 2.61133 17.4365C2.59311 17.4189 2.57516 17.4011 2.55762 17.3828C2.53383 17.358 2.51078 17.3326 2.48828 17.3066C2.47543 17.2918 2.46261 17.277 2.4502 17.2617C2.42702 17.2333 2.40442 17.2045 2.38281 17.1748C2.37845 17.1688 2.37344 17.1633 2.36914 17.1572L2.30273 17.0576C2.29933 17.0522 2.29632 17.0465 2.29297 17.041C2.27482 17.0113 2.25783 16.9809 2.24121 16.9502C2.22874 16.9272 2.21568 16.9044 2.2041 16.8809C2.18768 16.8474 2.17376 16.8128 2.15918 16.7783C2.0578 16.5389 2 16.2764 2 16V11C2 10.8656 2.01378 10.7344 2.03906 10.6074C2.04338 10.5858 2.0487 10.5644 2.05371 10.543C2.06342 10.5015 2.07369 10.4604 2.08594 10.4199C2.09293 10.3968 2.10157 10.3743 2.10938 10.3516C2.12221 10.3141 2.13445 10.2766 2.14941 10.2402C2.1584 10.2184 2.16898 10.1973 2.17871 10.1758C2.19469 10.1405 2.21059 10.1054 2.22852 10.0713C2.2423 10.045 2.25756 10.0197 2.27246 9.99414C2.28848 9.9667 2.305 9.93967 2.32227 9.91309C2.33748 9.88965 2.35299 9.86649 2.36914 9.84375C2.39032 9.81394 2.41183 9.78442 2.43457 9.75586C2.4507 9.73559 2.46749 9.7159 2.48438 9.69629C2.50846 9.66833 2.53302 9.64084 2.55859 9.61426C2.57551 9.59666 2.59281 9.57947 2.61035 9.5625C2.6372 9.53655 2.66509 9.51173 2.69336 9.4873C2.71364 9.46977 2.73391 9.45226 2.75488 9.43555C2.78146 9.41438 2.80926 9.39482 2.83691 9.375C2.85988 9.35853 2.88257 9.34168 2.90625 9.32617C2.93398 9.30802 2.96255 9.2912 2.99121 9.27441C3.01711 9.25924 3.04271 9.24352 3.06934 9.22949C3.09739 9.21473 3.12646 9.20193 3.15527 9.18848C3.18402 9.17505 3.21272 9.16149 3.24219 9.14941C3.26855 9.13861 3.29535 9.12883 3.32227 9.11914C3.35425 9.10761 3.38623 9.09586 3.41895 9.08594C3.46537 9.07187 3.51276 9.06052 3.56055 9.0498C3.57331 9.04694 3.58578 9.04266 3.59863 9.04004C3.66326 9.02688 3.72916 9.01751 3.7959 9.01074L4 9H5V2H16.5L19 4.5ZM6.2998 20.7002H17.7002V18H6.2998V20.7002ZM4 10.2998C3.6134 10.2998 3.2998 10.6134 3.2998 11V16C3.2998 16.3866 3.6134 16.7002 4 16.7002H20C20.3866 16.7002 20.7002 16.3866 20.7002 16V11C20.7002 10.6134 20.3866 10.2998 20 10.2998H4ZM6.2998 9H17.7002V5.03809L17.6621 5H16V3.33789L15.9619 3.2998H6.2998V9Z" fill="currentColor"/>
<path d="M19 11.6996L19.1309 11.7133C19.4271 11.7739 19.6504 12.0359 19.6504 12.35C19.6504 12.6642 19.4271 12.9262 19.1309 12.9867L19 13.0004H16C15.641 13.0004 15.3496 12.709 15.3496 12.35C15.3496 11.991 15.641 11.6996 16 11.6996H19Z" fill="currentColor"/>
  </symbol>
  <!-- icon-refresh -->
  <symbol id="icon-refresh" viewBox="0 0 24 24">
    <path d="M12.4635 4.26211C14.3438 4.34765 16.1349 5.08971 17.525 6.35878C18.3671 7.12765 19.0276 8.06153 19.4761 9.09218L19.8189 7.89101C19.9173 7.54594 20.2765 7.34563 20.6217 7.44375C20.9669 7.54198 21.1672 7.90217 21.0689 8.24746L19.9713 12.1049L16.3531 10.2396C16.0341 10.0751 15.9093 9.68269 16.0738 9.36367C16.2384 9.04477 16.6298 8.91997 16.9488 9.08437L18.3707 9.81679C17.9957 8.87066 17.41 8.01439 16.648 7.31875C15.4826 6.25477 13.9813 5.63276 12.4049 5.56093C10.8282 5.48921 9.27552 5.97229 8.01814 6.92617C6.76099 7.87998 5.87777 9.24422 5.52205 10.7816C5.16634 12.3193 5.36115 13.933 6.07185 15.3422C6.78258 16.7514 7.96472 17.8675 9.41267 18.4955C10.8604 19.1232 12.4824 19.2237 13.9967 18.7797C15.5111 18.3356 16.8222 17.3744 17.7017 16.0639C17.9018 15.7659 18.306 15.6861 18.6041 15.8861C18.9022 16.0862 18.9809 16.4904 18.7808 16.7885C17.732 18.3512 16.1689 19.4971 14.3629 20.0268C12.5567 20.5564 10.6219 20.4368 8.89509 19.6879C7.16832 18.939 5.75835 17.6086 4.91072 15.9281C4.0631 14.2475 3.83122 12.3225 4.25545 10.4887C4.6797 8.65494 5.73348 7.0276 7.23299 5.89003C8.73249 4.75256 10.5833 4.17658 12.4635 4.26211Z" fill="currentColor"/>
  </symbol>
  <!-- icon-search -->
  <symbol id="icon-search" viewBox="0 0 24 24">
    <path fill-rule="evenodd" clip-rule="evenodd" d="M19.0002 10C19.0002 12.7614 16.7617 15 14.0002 15C13.0441 15 12.1506 14.7316 11.391 14.2661L6.00024 19.6569C5.7464 19.9107 5.33485 19.9107 5.08101 19.6569C4.82716 19.403 4.82716 18.9915 5.08101 18.7376L10.3751 13.4436C9.52306 12.5469 9.00023 11.3345 9.00023 10C9.00023 7.23858 11.2388 5 14.0002 5C16.7617 5 19.0002 7.23858 19.0002 10ZM17.7002 10C17.7002 12.0435 16.0437 13.7 14.0002 13.7C11.9568 13.7 10.3002 12.0435 10.3002 10C10.3002 7.95655 11.9568 6.3 14.0002 6.3C16.0437 6.3 17.7002 7.95655 17.7002 10Z" fill="currentColor"/>
  </symbol>
  <!-- icon-settings -->
  <symbol id="icon-settings" viewBox="0 0 24 24">
    <path d="M11.6528 3.89856C12.6039 3.92794 13.5123 4.12365 14.3481 4.45715L15.6567 3.13391L18.5669 5.08215L17.6851 6.99036C18.2331 7.70916 18.6547 8.52626 18.9204 9.40833L20.7905 9.58801L21.0532 13.0363L18.9868 13.548C18.7493 14.4405 18.3531 15.2696 17.8296 16.004L18.853 17.5529L16.271 19.9044L14.5737 18.6368C13.7468 18.9971 12.8454 19.2215 11.8979 19.2794L11.3022 21.0314L7.81982 20.5157L7.771 18.422C6.94861 17.9996 6.21068 17.4381 5.59229 16.7687L3.82568 17.4034L2.06592 14.4083L3.70166 13.0656C3.60847 12.5889 3.55911 12.0974 3.55908 11.5948C3.55908 11.1749 3.5927 10.7622 3.65869 10.3605L2.05322 9.40149L3.33936 6.18176L5.43115 6.60168C6.02928 5.91245 6.74788 5.32942 7.55615 4.88196L7.31885 3.0509L10.6831 2.03137L11.6528 3.89856ZM11.5532 8.53137C9.89637 8.53137 8.55322 9.87452 8.55322 11.5314C8.55322 13.1882 9.89637 14.5314 11.5532 14.5314C13.2101 14.5314 14.5532 13.1882 14.5532 11.5314C14.5532 9.87452 13.2101 8.53137 11.5532 8.53137ZM11.5532 9.53137C12.6578 9.53137 13.5532 10.4268 13.5532 11.5314C13.5532 12.6359 12.6578 13.5314 11.5532 13.5314C10.4487 13.5314 9.55322 12.6359 9.55322 11.5314C9.55322 10.4268 10.4487 9.53137 11.5532 9.53137Z" fill="currentColor"/>
  </symbol>
  <!-- icon-shift -->
  <symbol id="icon-shift" viewBox="0 0 24 24">
    <path d="M7.23323 5.15072C7.50897 4.92093 7.91941 4.95805 8.14924 5.23372L13.1492 11.2337C13.35 11.4747 13.3499 11.8247 13.1492 12.0658L8.14924 18.0658C7.91943 18.3415 7.50901 18.3796 7.23323 18.1497C6.95757 17.9199 6.92044 17.5095 7.15022 17.2337L11.8035 11.6497L7.15022 6.06575C6.92084 5.79006 6.95781 5.38046 7.23323 5.15072Z" fill="currentColor"/>
<path d="M12.2332 5.15072C12.509 4.92093 12.9194 4.95805 13.1492 5.23372L18.1492 11.2337C18.35 11.4747 18.3499 11.8247 18.1492 12.0658L13.1492 18.0658C12.9194 18.3415 12.509 18.3796 12.2332 18.1497C11.9576 17.9199 11.9204 17.5095 12.1502 17.2337L16.8035 11.6497L12.1502 6.06575C11.9208 5.79006 11.9578 5.38046 12.2332 5.15072Z" fill="currentColor"/>
  </symbol>
  <!-- icon-show -->
  <symbol id="icon-show" viewBox="0 0 24 24">
    <path d="M2 11.9995C5.16347 1.62971 18.8365 1.62971 22 11.9995C18.8367 22.3699 5.16328 22.3699 2 11.9995ZM12 7.55521C9.54555 7.55521 7.5559 9.54515 7.55566 11.9995C7.55566 14.4541 9.5454 16.4449 12 16.4449C14.4546 16.4449 16.4443 14.4541 16.4443 11.9995C16.4441 9.54515 14.4545 7.55521 12 7.55521ZM12 9.77787C13.2272 9.77787 14.2224 10.7724 14.2227 11.9995C14.2227 13.2268 13.2273 14.2222 12 14.2222C10.7727 14.2222 9.77734 13.2268 9.77734 11.9995C9.77758 10.7724 10.7728 9.77787 12 9.77787Z" fill="currentColor"/>
  </symbol>
  <!-- icon-sidebar-collapse -->
  <symbol id="icon-sidebar-collapse" viewBox="0 0 24 24">
    <path d="M19 3C20.1046 3 21 3.89543 21 5V19C21 20.1046 20.1046 21 19 21H5C3.89543 21 3 20.1046 3 19V5C3 3.89543 3.89543 3 5 3H19ZM8 19.7002H19C19.3866 19.7002 19.7002 19.3866 19.7002 19V5C19.7002 4.6134 19.3866 4.2998 19 4.2998H8V19.7002ZM14.1904 8.54004C14.4442 8.28657 14.8556 8.28651 15.1094 8.54004C15.3632 8.79388 15.3632 9.20612 15.1094 9.45996L12.5693 12L15.1094 14.54C15.3632 14.7939 15.3632 15.2061 15.1094 15.46C14.8556 15.7135 14.4442 15.7135 14.1904 15.46L11.1904 12.46C11.0685 12.3381 11 12.1724 11 12C11 11.8276 11.0685 11.6619 11.1904 11.54L14.1904 8.54004Z" fill="currentColor"/>
  </symbol>
  <!-- icon-sidebar-expand -->
  <symbol id="icon-sidebar-expand" viewBox="0 0 24 24">
    <path d="M19 3C20.1046 3 21 3.89543 21 5V19C21 20.1046 20.1046 21 19 21H5C3.89543 21 3 20.1046 3 19V5C3 3.89543 3.89543 3 5 3H19ZM8 19.7002H19C19.3866 19.7002 19.7002 19.3866 19.7002 19V5C19.7002 4.6134 19.3866 4.2998 19 4.2998H8V19.7002ZM12.1904 8.54004C12.4442 8.2865 12.8556 8.28656 13.1094 8.54004L16.1094 11.54C16.2313 11.6619 16.2998 11.8276 16.2998 12C16.2998 12.1724 16.2313 12.3381 16.1094 12.46L13.1094 15.46C12.8556 15.7134 12.4442 15.7135 12.1904 15.46C11.9366 15.2061 11.9366 14.7939 12.1904 14.54L14.7305 12L12.1904 9.45996C11.9366 9.20612 11.9366 8.79388 12.1904 8.54004Z" fill="currentColor"/>
  </symbol>
  <!-- icon-sort-asc -->
  <symbol id="icon-sort-asc" viewBox="0 0 24 24">
    <path d="M10.1877 10.8296L6.56302 14.3976L4 11.8747L12 4L20 11.8747L17.437 14.3976L13.8124 10.8297V20H10.1877L10.1877 10.8296Z" fill="currentColor"/>
  </symbol>
  <!-- icon-sort-desc -->
  <symbol id="icon-sort-desc" viewBox="0 0 24 24">
    <path d="M13.8123 13.1704L17.437 9.60242L20 12.1253L12 20L4 12.1253L6.56302 9.60242L10.1876 13.1703L10.1876 4L13.8123 4L13.8123 13.1704Z" fill="currentColor"/>
  </symbol>
  <!-- icon-time -->
  <symbol id="icon-time" viewBox="0 0 24 24">
    <path d="M12 7.15039C12.4693 7.15057 12.8496 7.53067 12.8496 8V12.4707L12.4688 12.7227L12.4678 12.7236L12.4639 12.7266C12.4604 12.7289 12.4548 12.732 12.4482 12.7363C12.4346 12.7453 12.4145 12.7593 12.3887 12.7764C12.3364 12.8109 12.2596 12.8612 12.165 12.9238C11.9754 13.0494 11.7098 13.2252 11.4082 13.4248C10.8048 13.8243 10.0544 14.3213 9.46875 14.709C9.07742 14.9675 8.55004 14.8599 8.29102 14.4688C8.03242 14.0774 8.14019 13.5501 8.53125 13.291C9.11671 12.9034 9.86651 12.4071 10.4697 12.0078C10.7326 11.8338 10.9688 11.6778 11.1504 11.5576V8C11.1504 7.53067 11.5307 7.15058 12 7.15039Z" fill="currentColor"/>
<path fill-rule="evenodd" clip-rule="evenodd" d="M12 3C16.9706 3 21 7.02944 21 12C21 16.9706 16.9706 21 12 21C7.02944 21 3 16.9706 3 12C3 7.02944 7.02944 3 12 3ZM12 5C8.13401 5 5 8.13401 5 12C5 15.866 8.13401 19 12 19C15.866 19 19 15.866 19 12C19 8.13401 15.866 5 12 5Z" fill="currentColor"/>
  </symbol>
  <!-- icon-unit-price -->
  <symbol id="icon-unit-price" viewBox="0 0 24 24">
    <path d="M12 3C16.9706 3 21 7.02944 21 12C21 16.9706 16.9706 21 12 21C7.02944 21 3 16.9706 3 12C3 7.02944 7.02944 3 12 3ZM6.46777 7.7959L7.36523 11.748H6.23438V13.0479H7.65137L8.54785 17H10.6016L11.4336 13.0479H12.4873L13.3057 17H15.3604L16.2568 13.0479H17.7002V11.748H16.543L17.4395 7.7959H15.4902L14.749 11.748H13.6826L12.8379 7.7959H11.0703L10.2119 11.748H9.15918L8.41797 7.7959H6.46777ZM14.502 13.0479L14.2939 14.1924H14.2158L13.9688 13.0479H14.502ZM9.93848 13.0479L9.69141 14.166H9.61426L9.40625 13.0479H9.93848ZM12.0059 10.7344L12.2139 11.748H11.707L11.9277 10.7344H12.0059Z" fill="currentColor"/>
  </symbol>
  <!-- icon-upload -->
  <symbol id="icon-upload" viewBox="0 0 24 24">
    <path fill-rule="evenodd" clip-rule="evenodd" d="M4 4C4 2.89543 4.89543 2 6 2H15.1716C15.702 2 16.2107 2.21071 16.5858 2.58579L19.4142 5.41421C19.7893 5.78929 20 6.29799 20 6.82843V20C20 21.1046 19.1046 22 18 22H6C4.89543 22 4 21.1046 4 20V4ZM18 20.7H6C5.6134 20.7 5.3 20.3866 5.3 20V4C5.3 3.6134 5.6134 3.3 6 3.3H15V7H18.7V20C18.7 20.3866 18.3866 20.7 18 20.7Z" fill="currentColor"/>
<path d="M11.0939 11.4148L9.28151 13.1988L8 11.9374L12 8L16 11.9373L14.7185 13.1988L12.9062 11.4149V16H11.0939L11.0939 11.4148Z" fill="currentColor"/>
  </symbol>
</svg>